<svg version="1.1" id="Layer_1" xmlns="http://www.w3.org/2000/svg" xmlns:xlink="http://www.w3.org/1999/xlink" x="0px" y="0px"
	 width="100%" viewBox="0 0 512 512" enable-background="new 0 0 512 512" xml:space="preserve">
<path fill="#000000" opacity="1.000000" stroke="none" 
	d="
M342.000000,513.000000 
	C228.027695,513.000000 114.555382,513.000000 1.041535,513.000000 
	C1.041535,342.402679 1.041535,171.805328 1.041535,1.103989 
	C171.555649,1.103989 342.111389,1.103989 512.833557,1.103989 
	C512.833557,171.666534 512.833557,342.333252 512.833557,513.000000 
	C456.138641,513.000000 399.319305,513.000000 342.000000,513.000000 
M406.897827,319.057343 
	C406.913147,256.061035 406.929657,193.064743 406.942078,130.068451 
	C406.943451,123.084801 406.932526,123.073975 400.000000,123.073624 
	C341.503204,123.070648 283.006409,123.070633 224.509613,123.079277 
	C223.013519,123.079498 221.517410,123.188904 219.114395,123.105003 
	C218.281784,123.095596 217.449188,123.079613 216.616562,123.077789 
	C207.831024,123.058517 207.830048,123.059143 207.830032,131.644043 
	C207.829834,192.934036 207.828278,254.224014 207.832672,315.514008 
	C207.833145,322.191803 207.849426,322.213318 214.435303,322.214813 
	C249.244019,322.222656 284.052734,322.218872 318.861450,322.218964 
	C346.175476,322.219025 373.489716,322.265198 400.802979,322.122040 
	C402.770264,322.111725 404.730316,320.720032 406.897827,319.057343 
M138.967773,478.724670 
	C183.859482,478.724670 228.751190,478.724670 273.648682,478.724670 
	C273.648682,477.843811 273.734314,477.491333 273.635956,477.201202 
	C271.875153,472.007996 270.129517,466.809143 268.307495,461.637268 
	C257.719666,431.583038 250.872833,400.899139 252.093185,368.761017 
	C252.300293,363.307159 254.182968,359.528870 258.584351,356.148621 
	C265.213287,351.057648 271.231140,345.170959 277.508728,339.622528 
	C277.261444,339.267151 277.014160,338.911804 276.766876,338.556427 
	C266.914703,338.556427 257.062500,338.556427 246.910858,338.556427 
	C246.910858,340.680542 246.910843,342.496796 246.910843,344.313019 
	C246.910828,363.312897 246.921646,382.312775 246.905029,401.312653 
	C246.899109,408.084442 244.092331,411.832245 239.028778,411.952332 
	C233.753464,412.077454 230.918671,408.338104 230.914703,401.173279 
	C230.904083,382.006714 230.911041,362.840179 230.911041,343.673615 
	C230.911041,341.936584 230.911041,340.199524 230.911041,338.244934 
	C224.100952,338.244934 218.112061,338.296753 212.124359,338.234344 
	C199.010986,338.097717 191.879105,330.868439 191.814026,317.686737 
	C191.783905,311.588501 191.808884,305.490021 191.808884,299.597107 
	C190.781723,299.324432 190.466522,299.168091 190.151031,299.167480 
	C177.818268,299.144073 165.484451,299.217529 153.153519,299.061432 
	C150.326630,299.025635 148.869095,299.840912 147.456451,302.447174 
	C141.466141,313.498993 128.855728,317.901917 117.544533,313.257507 
	C107.495956,309.131500 101.885933,299.670990 102.862015,288.497467 
	C103.722542,278.646667 111.316360,270.113098 121.178795,267.913940 
	C131.596802,265.590942 141.711304,270.060120 147.252731,279.239502 
	C148.163574,280.748291 149.743942,282.928894 151.052475,282.955597 
	C164.492416,283.229767 177.940109,283.123718 191.576431,283.123718 
	C191.576431,265.500458 191.576431,248.418335 191.576431,230.816910 
	C189.566925,230.816910 187.782959,230.816940 185.998978,230.816895 
	C166.832428,230.816483 147.665787,230.849197 128.499374,230.796783 
	C122.186806,230.779526 118.641342,227.740234 118.663116,222.663666 
	C118.684853,217.594772 122.128601,214.837601 128.619141,214.829605 
	C147.785660,214.806000 166.952225,214.820847 186.118774,214.820679 
	C187.887695,214.820663 189.656616,214.820694 191.451904,214.820694 
	C191.451904,196.947433 191.451904,179.723282 191.451904,162.179291 
	C189.289917,162.179291 187.476822,162.179352 185.663712,162.179291 
	C166.497162,162.178635 147.330566,162.201141 128.164093,162.163467 
	C122.225792,162.151794 119.008759,159.590271 118.696938,154.859909 
	C118.354584,149.666229 121.848579,146.249420 127.952606,146.214157 
	C142.952011,146.127487 157.952255,146.183990 172.952164,146.183151 
	C179.075836,146.182800 185.199524,146.183090 191.340973,146.183090 
	C193.495773,134.299515 187.841019,121.510574 198.194138,111.281784 
	C194.965134,111.017899 192.524826,110.749252 190.077225,110.629288 
	C168.962952,109.594452 148.162430,111.173729 127.278435,118.149849 
	C93.049278,129.834671 70.139198,152.883545 58.460876,187.039047 
	C51.190186,208.303619 49.833157,230.304123 51.314323,252.528687 
	C51.900459,261.323486 50.227757,269.491791 45.558048,276.808258 
	C41.456123,283.235107 36.421082,289.060516 32.192410,295.413940 
	C27.545300,302.396118 23.348833,309.678223 18.489613,317.588989 
	C24.652308,318.838562 29.337694,319.788605 34.589249,321.109009 
	C36.029617,322.749878 37.469986,324.390747 38.851021,326.963867 
	C38.898872,332.451813 39.281002,337.963654 38.891125,343.420319 
	C38.566402,347.965118 39.780910,350.319305 44.284035,352.265869 
	C54.104168,356.510925 55.565540,365.263000 48.335411,373.163696 
	C46.018032,375.696014 43.382797,377.937439 41.845612,379.403473 
	C45.773525,388.602631 49.830669,396.946381 52.917339,405.634918 
	C56.540298,415.833160 56.565826,416.198853 67.576920,414.311981 
	C68.393852,414.172028 69.203850,413.991547 70.815239,413.905396 
	C80.526695,411.718872 90.219879,409.446747 99.954338,407.367950 
	C111.551964,404.891266 122.801628,404.407806 132.103546,414.738098 
	C136.806427,420.952179 137.314896,428.025848 135.323975,435.108337 
	C132.774918,444.176361 129.386124,453.004913 126.588303,462.007843 
	C124.942047,467.305267 123.740044,472.740753 122.229919,478.529297 
	C128.180389,478.529297 133.118530,478.529297 138.967773,478.724670 
M234.366577,36.799801 
	C231.226044,39.199249 229.778580,42.545494 231.620056,45.956600 
	C232.792526,48.128448 235.618027,50.672749 237.765045,50.730835 
	C240.399750,50.802120 244.253540,49.099819 245.446533,46.969383 
	C246.633575,44.849514 246.033936,40.752338 244.678909,38.413841 
	C242.626587,34.871971 238.764069,34.545849 234.366577,36.799801 
M480.876740,157.442505 
	C484.267273,162.288193 488.637909,163.511902 492.602570,160.725540 
	C496.221619,158.182022 497.112671,153.254791 494.414276,149.737213 
	C492.055084,146.661819 488.879639,145.358170 485.188202,146.999329 
	C481.011108,148.856400 479.290466,152.142075 480.876740,157.442505 
M383.658386,404.371552 
	C382.445984,398.046478 378.452332,394.810333 373.599854,396.397217 
	C369.656616,397.686707 367.621277,400.513489 367.969543,404.721008 
	C368.301605,408.732880 370.787872,411.010956 374.562378,411.795868 
	C378.536926,412.622375 381.735382,410.143463 383.658386,404.371552 
M121.531342,285.062347 
	C118.057350,289.372711 117.758171,293.434784 120.846893,296.548065 
	C123.787682,299.512207 127.219353,299.945953 130.779800,297.771088 
	C134.283600,295.630829 135.346634,290.886841 133.312683,287.285034 
	C131.147430,283.450745 127.275513,282.522339 121.531342,285.062347 
z"/>
<path fill="#FED5BC" opacity="1.000000" stroke="none" 
	d="
M131.897339,414.047546 
	C122.801628,404.407806 111.551964,404.891266 99.954338,407.367950 
	C90.219879,409.446747 80.526695,411.718872 70.410446,413.476105 
	C67.937958,403.369995 64.283279,394.402161 58.585648,386.238007 
	C54.205502,379.961670 54.832638,377.121796 60.753151,372.491638 
	C62.445972,371.167755 63.943684,369.579163 65.445412,368.029175 
	C69.197350,364.156738 68.757179,360.418121 63.430782,359.203583 
	C54.647690,357.200867 52.771149,351.906067 53.972801,344.125305 
	C54.173450,342.826050 54.000648,341.469177 54.000340,340.138916 
	C53.997253,326.924072 53.103420,326.059204 39.409081,326.021362 
	C39.242847,326.020905 39.076595,326.028015 38.910355,326.031616 
	C37.469986,324.390747 36.029617,322.749878 34.375999,320.567780 
	C36.980656,308.329712 42.648090,298.130188 50.365421,288.980408 
	C61.205444,276.128357 68.934067,262.892853 66.433014,244.401825 
	C64.058556,226.846771 67.212036,209.012405 72.040283,191.790634 
	C80.293427,162.352600 96.186897,138.482559 122.801704,122.448357 
	C124.708427,121.299629 126.290489,119.612022 128.023514,118.174980 
	C148.162430,111.173729 168.962952,109.594452 190.077225,110.629288 
	C192.524826,110.749252 194.965134,111.017899 198.194138,111.281784 
	C187.841019,121.510574 193.495773,134.299515 191.340973,146.183090 
	C185.199524,146.183090 179.075836,146.182800 172.952164,146.183151 
	C157.952255,146.183990 142.952011,146.127487 127.952606,146.214157 
	C121.848579,146.249420 118.354584,149.666229 118.696938,154.859909 
	C119.008759,159.590271 122.225792,162.151794 128.164093,162.163467 
	C147.330566,162.201141 166.497162,162.178635 185.663712,162.179291 
	C187.476822,162.179352 189.289917,162.179291 191.451904,162.179291 
	C191.451904,179.723282 191.451904,196.947433 191.451904,214.820694 
	C189.656616,214.820694 187.887695,214.820663 186.118774,214.820679 
	C166.952225,214.820847 147.785660,214.806000 128.619141,214.829605 
	C122.128601,214.837601 118.684853,217.594772 118.663116,222.663666 
	C118.641342,227.740234 122.186806,230.779526 128.499374,230.796783 
	C147.665787,230.849197 166.832428,230.816483 185.998978,230.816895 
	C187.782959,230.816940 189.566925,230.816910 191.576431,230.816910 
	C191.576431,248.418335 191.576431,265.500458 191.576431,283.123718 
	C177.940109,283.123718 164.492416,283.229767 151.052475,282.955597 
	C149.743942,282.928894 148.163574,280.748291 147.252731,279.239502 
	C141.711304,270.060120 131.596802,265.590942 121.178795,267.913940 
	C111.316360,270.113098 103.722542,278.646667 102.862015,288.497467 
	C101.885933,299.670990 107.495956,309.131500 117.544533,313.257507 
	C128.855728,317.901917 141.466141,313.498993 147.456451,302.447174 
	C148.869095,299.840912 150.326630,299.025635 153.153519,299.061432 
	C165.484451,299.217529 177.818268,299.144073 190.151031,299.167480 
	C190.466522,299.168091 190.781723,299.324432 191.808884,299.597107 
	C191.808884,305.490021 191.783905,311.588501 191.814026,317.686737 
	C191.879105,330.868439 199.010986,338.097717 212.124359,338.234344 
	C218.112061,338.296753 224.100952,338.244934 230.911041,338.244934 
	C230.911041,340.199524 230.911041,341.936584 230.911041,343.673615 
	C230.911041,362.840179 230.904083,382.006714 230.914703,401.173279 
	C230.918671,408.338104 233.753464,412.077454 239.028778,411.952332 
	C244.092331,411.832245 246.899109,408.084442 246.905029,401.312653 
	C246.921646,382.312775 246.910828,363.312897 246.910843,344.313019 
	C246.910843,342.496796 246.910858,340.680542 246.910858,338.556427 
	C257.062500,338.556427 266.914703,338.556427 276.766876,338.556427 
	C277.014160,338.911804 277.261444,339.267151 277.508728,339.622528 
	C271.231140,345.170959 265.213287,351.057648 258.584351,356.148621 
	C254.182968,359.528870 252.300293,363.307159 252.093185,368.761017 
	C250.872833,400.899139 257.719666,431.583038 268.307495,461.637268 
	C270.129517,466.809143 271.875153,472.007996 273.635956,477.201202 
	C273.734314,477.491333 273.648682,477.843811 273.648682,478.724670 
	C228.751190,478.724670 183.859482,478.724670 138.508270,478.232910 
	C139.470184,471.629181 140.640457,465.445099 142.370636,459.421814 
	C145.113327,449.873718 148.577805,440.523865 151.086884,430.920349 
	C153.376617,422.156342 147.492294,414.758087 138.377625,414.067871 
	C136.229340,413.905182 134.058044,414.046234 131.897339,414.047546 
z"/>
<path fill="#71D360" opacity="1.000000" stroke="none" 
	d="
M220.021301,123.247391 
	C221.517410,123.188904 223.013519,123.079498 224.509613,123.079277 
	C283.006409,123.070633 341.503204,123.070648 400.000000,123.073624 
	C406.932526,123.073975 406.943451,123.084801 406.942078,130.068451 
	C406.929657,193.064743 406.913147,256.061035 406.348145,319.520203 
	C347.543274,319.996490 289.288086,320.018890 231.032898,320.012451 
	C223.477203,320.011627 220.004501,316.572968 219.988602,309.076904 
	C219.947342,289.603058 219.949570,270.128998 220.013535,250.655258 
	C220.018723,249.077301 220.628021,247.501328 221.244827,246.109161 
	C222.642990,247.299545 223.683060,248.397675 224.873550,249.296600 
	C236.970566,258.430756 250.188690,260.287689 263.859100,253.857513 
	C277.121307,247.619339 284.317017,236.691940 285.089813,221.897095 
	C285.391998,216.112396 283.327911,213.674622 277.826263,212.303528 
	C276.630585,212.005524 274.988434,211.634094 274.475220,210.756516 
	C270.232147,203.500839 266.206451,196.118027 261.755371,188.128250 
	C269.294128,188.128250 275.928619,187.907959 282.531281,188.269333 
	C284.388855,188.371002 286.385986,189.916122 287.909607,191.262543 
	C290.738586,193.762466 292.962311,197.041031 296.016876,199.161697 
	C298.393402,200.811646 299.291412,202.337677 299.273804,205.137329 
	C299.164948,222.465103 299.228119,239.793900 299.201965,257.122314 
	C299.199829,258.537231 298.957581,259.951752 298.787231,261.796478 
	C294.883667,261.796478 291.393982,261.594940 287.934814,261.834503 
	C277.843292,262.533386 269.393280,270.333649 267.927155,280.364410 
	C267.448303,283.640656 267.406677,287.003174 267.423096,290.324951 
	C267.461609,298.123138 270.223145,300.858337 277.987885,300.871643 
	C295.649506,300.901886 313.311249,300.881622 330.972931,300.881714 
	C346.494965,300.881775 347.369293,299.991760 347.085999,284.481079 
	C346.845184,271.296631 337.561371,261.983948 324.333313,261.696930 
	C321.411469,261.633545 318.487091,261.687653 315.230255,261.687653 
	C315.230255,242.858643 315.326202,224.880859 315.153412,206.905655 
	C315.116577,203.076004 315.832977,200.640366 319.540375,198.547073 
	C322.539825,196.853531 324.486542,193.329941 326.987305,190.700943 
	C327.915649,189.724991 329.070557,188.283432 330.158386,188.250519 
	C337.389832,188.031540 344.631104,188.137039 352.920898,188.137039 
	C348.681396,195.704712 345.105255,202.410065 341.162354,208.892334 
	C340.216980,210.446609 338.207397,211.774765 336.418213,212.313690 
	C331.517487,213.789841 329.181793,216.589767 329.332062,221.743042 
	C329.903625,241.344574 346.683899,257.513000 366.492554,257.548615 
	C386.273590,257.584167 403.098816,241.423874 403.713959,221.798172 
	C403.875824,216.633682 401.530396,213.839310 396.683411,212.311172 
	C394.768005,211.707291 392.637451,210.213791 391.643768,208.516983 
	C385.758179,198.466415 380.084229,188.287735 374.540283,178.043274 
	C372.302795,173.908691 369.187103,172.019241 364.502350,172.081497 
	C354.840118,172.209961 345.168671,171.912720 335.513794,172.207764 
	C330.885040,172.349213 327.114014,172.041840 325.109406,167.033218 
	C324.477844,165.455185 322.931580,163.849762 321.393097,163.100906 
	C316.501190,160.719757 314.608582,157.249359 314.967316,151.713120 
	C315.219116,147.827515 312.313538,145.345856 308.343170,144.883469 
	C304.199921,144.400940 299.903534,146.230728 300.091553,150.168686 
	C300.460724,157.901031 295.717163,161.481049 290.753601,165.457199 
	C289.625092,166.361237 288.632812,167.704453 288.120697,169.051849 
	C287.105286,171.723328 285.295044,172.200272 282.690857,172.169937 
	C272.028656,172.045670 261.361877,172.247787 250.701447,172.062042 
	C245.622391,171.973526 242.279892,173.895920 239.862396,178.408829 
	C234.440887,188.529541 228.740417,198.501907 223.062622,208.482971 
	C222.304337,209.815948 221.018692,210.848938 219.973602,211.550903 
	C219.987091,181.803101 220.004196,152.525238 220.021301,123.247391 
z"/>
<path fill="#F6C4A8" opacity="1.000000" stroke="none" 
	d="
M127.650970,118.162415 
	C126.290489,119.612022 124.708427,121.299629 122.801704,122.448357 
	C96.186897,138.482559 80.293427,162.352600 72.040283,191.790634 
	C67.212036,209.012405 64.058556,226.846771 66.433014,244.401825 
	C68.934067,262.892853 61.205444,276.128357 50.365421,288.980408 
	C42.648090,298.130188 36.980656,308.329712 34.092918,320.382568 
	C29.337694,319.788605 24.652308,318.838562 18.489613,317.588989 
	C23.348833,309.678223 27.545300,302.396118 32.192410,295.413940 
	C36.421082,289.060516 41.456123,283.235107 45.558048,276.808258 
	C50.227757,269.491791 51.900459,261.323486 51.314323,252.528687 
	C49.833157,230.304123 51.190186,208.303619 58.460876,187.039047 
	C70.139198,152.883545 93.049278,129.834671 127.650970,118.162415 
z"/>
<path fill="#44C346" opacity="1.000000" stroke="none" 
	d="
M219.567841,123.176193 
	C220.004196,152.525238 219.987091,181.803101 219.612823,211.642120 
	C212.468109,213.766251 210.657181,215.992401 211.024323,222.793365 
	C211.504761,231.693527 215.234589,239.249054 220.956573,245.924423 
	C220.628021,247.501328 220.018723,249.077301 220.013535,250.655258 
	C219.949570,270.128998 219.947342,289.603058 219.988602,309.076904 
	C220.004501,316.572968 223.477203,320.011627 231.032898,320.012451 
	C289.288086,320.018890 347.543274,319.996490 406.246094,319.976807 
	C404.730316,320.720032 402.770264,322.111725 400.802979,322.122040 
	C373.489716,322.265198 346.175476,322.219025 318.861450,322.218964 
	C284.052734,322.218872 249.244019,322.222656 214.435303,322.214813 
	C207.849426,322.213318 207.833145,322.191803 207.832672,315.514008 
	C207.828278,254.224014 207.829834,192.934036 207.830032,131.644043 
	C207.830048,123.059143 207.831024,123.058517 216.616562,123.077789 
	C217.449188,123.079613 218.281784,123.095596 219.567841,123.176193 
z"/>
<path fill="#F7C4A8" opacity="1.000000" stroke="none" 
	d="
M38.880684,326.497742 
	C39.076595,326.028015 39.242847,326.020905 39.409081,326.021362 
	C53.103420,326.059204 53.997253,326.924072 54.000340,340.138916 
	C54.000648,341.469177 54.173450,342.826050 53.972801,344.125305 
	C52.771149,351.906067 54.647690,357.200867 63.430782,359.203583 
	C68.757179,360.418121 69.197350,364.156738 65.445412,368.029175 
	C63.943684,369.579163 62.445972,371.167755 60.753151,372.491638 
	C54.832638,377.121796 54.205502,379.961670 58.585648,386.238007 
	C64.283279,394.402161 67.937958,403.369995 70.011368,413.438354 
	C69.203850,413.991547 68.393852,414.172028 67.576920,414.311981 
	C56.565826,416.198853 56.540298,415.833160 52.917339,405.634918 
	C49.830669,396.946381 45.773525,388.602631 41.845612,379.403473 
	C43.382797,377.937439 46.018032,375.696014 48.335411,373.163696 
	C55.565540,365.263000 54.104168,356.510925 44.284035,352.265869 
	C39.780910,350.319305 38.566402,347.965118 38.891125,343.420319 
	C39.281002,337.963654 38.898872,332.451813 38.880684,326.497742 
z"/>
<path fill="#ECBDA2" opacity="1.000000" stroke="none" 
	d="
M132.000443,414.392822 
	C134.058044,414.046234 136.229340,413.905182 138.377625,414.067871 
	C147.492294,414.758087 153.376617,422.156342 151.086884,430.920349 
	C148.577805,440.523865 145.113327,449.873718 142.370636,459.421814 
	C140.640457,465.445099 139.470184,471.629181 138.052719,478.135223 
	C133.118530,478.529297 128.180389,478.529297 122.229919,478.529297 
	C123.740044,472.740753 124.942047,467.305267 126.588303,462.007843 
	C129.386124,453.004913 132.774918,444.176361 135.323975,435.108337 
	C137.314896,428.025848 136.806427,420.952179 132.000443,414.392822 
z"/>
<path fill="#F46356" opacity="1.000000" stroke="none" 
	d="
M234.675415,36.581059 
	C238.764069,34.545849 242.626587,34.871971 244.678909,38.413841 
	C246.033936,40.752338 246.633575,44.849514 245.446533,46.969383 
	C244.253540,49.099819 240.399750,50.802120 237.765045,50.730835 
	C235.618027,50.672749 232.792526,48.128448 231.620056,45.956600 
	C229.778580,42.545494 231.226044,39.199249 234.675415,36.581059 
z"/>
<path fill="#F46357" opacity="1.000000" stroke="none" 
	d="
M480.737762,157.082581 
	C479.290466,152.142075 481.011108,148.856400 485.188202,146.999329 
	C488.879639,145.358170 492.055084,146.661819 494.414276,149.737213 
	C497.112671,153.254791 496.221619,158.182022 492.602570,160.725540 
	C488.637909,163.511902 484.267273,162.288193 480.737762,157.082581 
z"/>
<path fill="#F56457" opacity="1.000000" stroke="none" 
	d="
M383.608032,404.745544 
	C381.735382,410.143463 378.536926,412.622375 374.562378,411.795868 
	C370.787872,411.010956 368.301605,408.732880 367.969543,404.721008 
	C367.621277,400.513489 369.656616,397.686707 373.599854,396.397217 
	C378.452332,394.810333 382.445984,398.046478 383.608032,404.745544 
z"/>
<path fill="#F76558" opacity="1.000000" stroke="none" 
	d="
M121.849213,284.837402 
	C127.275513,282.522339 131.147430,283.450745 133.312683,287.285034 
	C135.346634,290.886841 134.283600,295.630829 130.779800,297.771088 
	C127.219353,299.945953 123.787682,299.512207 120.846893,296.548065 
	C117.758171,293.434784 118.057350,289.372711 121.849213,284.837402 
z"/>
<path fill="#020301" opacity="1.000000" stroke="none" 
	d="
M221.244827,246.109161 
	C215.234589,239.249054 211.504761,231.693527 211.024323,222.793365 
	C210.657181,215.992401 212.468109,213.766251 219.616470,212.112076 
	C221.018692,210.848938 222.304337,209.815948 223.062622,208.482971 
	C228.740417,198.501907 234.440887,188.529541 239.862396,178.408829 
	C242.279892,173.895920 245.622391,171.973526 250.701447,172.062042 
	C261.361877,172.247787 272.028656,172.045670 282.690857,172.169937 
	C285.295044,172.200272 287.105286,171.723328 288.120697,169.051849 
	C288.632812,167.704453 289.625092,166.361237 290.753601,165.457199 
	C295.717163,161.481049 300.460724,157.901031 300.091553,150.168686 
	C299.903534,146.230728 304.199921,144.400940 308.343170,144.883469 
	C312.313538,145.345856 315.219116,147.827515 314.967316,151.713120 
	C314.608582,157.249359 316.501190,160.719757 321.393097,163.100906 
	C322.931580,163.849762 324.477844,165.455185 325.109406,167.033218 
	C327.114014,172.041840 330.885040,172.349213 335.513794,172.207764 
	C345.168671,171.912720 354.840118,172.209961 364.502350,172.081497 
	C369.187103,172.019241 372.302795,173.908691 374.540283,178.043274 
	C380.084229,188.287735 385.758179,198.466415 391.643768,208.516983 
	C392.637451,210.213791 394.768005,211.707291 396.683411,212.311172 
	C401.530396,213.839310 403.875824,216.633682 403.713959,221.798172 
	C403.098816,241.423874 386.273590,257.584167 366.492554,257.548615 
	C346.683899,257.513000 329.903625,241.344574 329.332062,221.743042 
	C329.181793,216.589767 331.517487,213.789841 336.418213,212.313690 
	C338.207397,211.774765 340.216980,210.446609 341.162354,208.892334 
	C345.105255,202.410065 348.681396,195.704712 352.920898,188.137039 
	C344.631104,188.137039 337.389832,188.031540 330.158386,188.250519 
	C329.070557,188.283432 327.915649,189.724991 326.987305,190.700943 
	C324.486542,193.329941 322.539825,196.853531 319.540375,198.547073 
	C315.832977,200.640366 315.116577,203.076004 315.153412,206.905655 
	C315.326202,224.880859 315.230255,242.858643 315.230255,261.687653 
	C318.487091,261.687653 321.411469,261.633545 324.333313,261.696930 
	C337.561371,261.983948 346.845184,271.296631 347.085999,284.481079 
	C347.369293,299.991760 346.494965,300.881775 330.972931,300.881714 
	C313.311249,300.881622 295.649506,300.901886 277.987885,300.871643 
	C270.223145,300.858337 267.461609,298.123138 267.423096,290.324951 
	C267.406677,287.003174 267.448303,283.640656 267.927155,280.364410 
	C269.393280,270.333649 277.843292,262.533386 287.934814,261.834503 
	C291.393982,261.594940 294.883667,261.796478 298.787231,261.796478 
	C298.957581,259.951752 299.199829,258.537231 299.201965,257.122314 
	C299.228119,239.793900 299.164948,222.465103 299.273804,205.137329 
	C299.291412,202.337677 298.393402,200.811646 296.016876,199.161697 
	C292.962311,197.041031 290.738586,193.762466 287.909607,191.262543 
	C286.385986,189.916122 284.388855,188.371002 282.531281,188.269333 
	C275.928619,187.907959 269.294128,188.128250 261.755371,188.128250 
	C266.206451,196.118027 270.232147,203.500839 274.475220,210.756516 
	C274.988434,211.634094 276.630585,212.005524 277.826263,212.303528 
	C283.327911,213.674622 285.391998,216.112396 285.089813,221.897095 
	C284.317017,236.691940 277.121307,247.619339 263.859100,253.857513 
	C250.188690,260.287689 236.970566,258.430756 224.873550,249.296600 
	C223.683060,248.397675 222.642990,247.299545 221.244827,246.109161 
M313.507446,179.585205 
	C312.800018,175.734528 310.456787,173.573135 306.587311,174.075867 
	C302.846741,174.561844 300.722504,176.904312 301.193787,181.709763 
	C302.401550,185.044189 304.710876,186.856964 308.303223,186.271271 
	C311.616516,185.731064 313.501862,183.731354 313.507446,179.585205 
M266.913605,229.922516 
	C266.023285,229.356415 265.153290,228.343094 264.239136,228.301575 
	C260.262756,228.120941 256.273529,228.222992 252.288986,228.222885 
	C244.594604,228.222672 236.900223,228.222824 228.365234,228.222824 
	C232.396973,236.133530 237.818909,240.434875 245.693527,241.257019 
	C254.876404,242.215729 261.772430,238.426605 266.913605,229.922516 
M365.500885,228.222427 
	C359.565765,228.222427 353.630676,228.222427 347.584259,228.222427 
	C350.078125,236.292465 358.036072,241.672455 366.796539,241.516541 
	C375.503662,241.361572 383.135803,236.022949 385.421387,228.222443 
	C379.052307,228.222443 372.776184,228.222443 365.500885,228.222427 
M316.465332,277.649872 
	C307.985657,277.651581 299.505920,277.643036 291.026276,277.659180 
	C286.551544,277.667694 283.788574,279.535431 283.690948,284.564667 
	C299.520782,284.564667 315.170868,284.564667 331.043030,284.564667 
	C330.763519,280.034546 328.544525,277.891632 324.431824,277.697540 
	C322.108978,277.587952 319.777618,277.659729 316.465332,277.649872 
M374.204254,210.442413 
	C371.747772,206.009613 369.291290,201.576828 366.512604,196.562607 
	C363.515503,202.026855 360.879669,206.832443 357.569092,212.868240 
	C364.116760,212.206314 369.324585,211.679855 374.204254,210.442413 
M255.742691,210.292908 
	C253.350220,206.044708 250.957748,201.796509 248.075668,196.678940 
	C244.995483,202.177399 242.399673,206.811203 239.022919,212.839066 
	C245.598511,212.164215 250.776871,211.632751 255.742691,210.292908 
z"/>
<path fill="#F3D02B" opacity="1.000000" stroke="none" 
	d="
M266.745422,230.283691 
	C261.772430,238.426605 254.876404,242.215729 245.693527,241.257019 
	C237.818909,240.434875 232.396973,236.133530 228.365234,228.222824 
	C236.900223,228.222824 244.594604,228.222672 252.288986,228.222885 
	C256.273529,228.222992 260.262756,228.120941 264.239136,228.301575 
	C265.153290,228.343094 266.023285,229.356415 266.745422,230.283691 
z"/>
<path fill="#F3D02B" opacity="1.000000" stroke="none" 
	d="
M366.000488,228.222443 
	C372.776184,228.222443 379.052307,228.222443 385.421387,228.222443 
	C383.135803,236.022949 375.503662,241.361572 366.796539,241.516541 
	C358.036072,241.672455 350.078125,236.292465 347.584259,228.222427 
	C353.630676,228.222427 359.565765,228.222427 366.000488,228.222443 
z"/>
<path fill="#F6D22B" opacity="1.000000" stroke="none" 
	d="
M316.957703,277.649841 
	C319.777618,277.659729 322.108978,277.587952 324.431824,277.697540 
	C328.544525,277.891632 330.763519,280.034546 331.043030,284.564667 
	C315.170868,284.564667 299.520782,284.564667 283.690948,284.564667 
	C283.788574,279.535431 286.551544,277.667694 291.026276,277.659180 
	C299.505920,277.643036 307.985657,277.651581 316.957703,277.649841 
z"/>
<path fill="#6ECE5E" opacity="1.000000" stroke="none" 
	d="
M374.368317,210.797897 
	C369.324585,211.679855 364.116760,212.206314 357.569092,212.868240 
	C360.879669,206.832443 363.515503,202.026855 366.512604,196.562607 
	C369.291290,201.576828 371.747772,206.009613 374.368317,210.797897 
z"/>
<path fill="#6ECE5E" opacity="1.000000" stroke="none" 
	d="
M255.848969,210.697113 
	C250.776871,211.632751 245.598511,212.164215 239.022919,212.839066 
	C242.399673,206.811203 244.995483,202.177399 248.075668,196.678940 
	C250.957748,201.796509 253.350220,206.044708 255.848969,210.697113 
z"/>
<path fill="#FBD62B" opacity="1.000000" stroke="none" 
	d="
M313.267059,180.160034 
	C313.501862,183.731354 311.616516,185.731064 308.303223,186.271271 
	C304.710876,186.856964 302.401550,185.044189 301.486633,181.154968 
	C305.469574,176.823730 309.355927,178.168793 313.267059,180.160034 
z"/>
<path fill="#EEBC03" opacity="1.000000" stroke="none" 
	d="
M313.387268,179.872620 
	C309.355927,178.168793 305.469574,176.823730 301.498169,180.791733 
	C300.722504,176.904312 302.846741,174.561844 306.587311,174.075867 
	C310.456787,173.573135 312.800018,175.734528 313.387268,179.872620 
z"/>
</svg>